# xmcd
#
# Track frame offsets:
#	150
#	11552
#	22016
#	33456
#	45579
#	56157
#	68607
#	80044
#	90815
#	102594
#	113021
#	124387
#
# Disc length: 1809 seconds
#
# Revision: 2
# Processed by: cddbd v1.5.1PL0 Copyright (c) Steve Scherf et al.
# Submitted via: audiograbber 1.83.01
#
DISCID=99070f0c
DTITLE=Red Sovine - Red Sovine
DYEAR=1900
DGENRE=
TTITLE0=If You'll Be A Baby
TTITLE1=Don't Worry
TTITLE2=The Intoxicated Rat
TTITLE3=Till Today
TTITLE4=It'd Surprise You
TTITLE5=Billy Goat Boogie
TTITLE6=I'm Gonna Lock My Heart (And Throw Away The Key)
TTITLE7=Farewell, So Long, Goodbye
TTITLE8=Sundown Sue
TTITLE9=You Thaught Me How
TTITLE10=Okey Dokey
TTITLE11=Please Don't Let Me Love You
EXTD=
EXTT0=
EXTT1=
EXTT2=
EXTT3=
EXTT4=
EXTT5=
EXTT6=
EXTT7=
EXTT8=
EXTT9=
EXTT10=
EXTT11=
PLAYORDER=
